<?xml version="1.0" encoding="utf-8"?>
<!-- Generator: Adobe Illustrator 19.2.0, SVG Export Plug-In . SVG Version: 6.00 Build 0)  -->
<svg version="1.1" id="Layer_1" xmlns="http://www.w3.org/2000/svg" xmlns:xlink="http://www.w3.org/1999/xlink" x="0px" y="0px"
	 viewBox="0 0 32 32" style="enable-background:new 0 0 32 32;" xml:space="preserve">
<style type="text/css">
	.st0{fill:none;}
	.st1{fill:#FFFFFF;}
	.st2{font-family:'MyriadPro-Regular';}
	.st3{font-size:7px;}
	.st4{font-family:'KozGoPr6N-Regular-90ms-RKSJ-H';}
</style>
<g id="Layer_2">
</g>
<g>
	<path d="M30.2,20.7l-2.4,4c-1.7,2.8-5,4.5-8.5,4.5l-5-0.1c-3.5,0-6.8-1.9-8.6-4.7l-2.6-4.1C1.3,17.5,1.2,14,3,11.1l2.4-4
		c1.7-2.8,5-4.5,8.5-4.5l5,0.1c3.5,0,6.8,1.9,8.6,4.7l2.6,4.1C31.9,14.4,32,17.9,30.2,20.7z"/>
	<rect x="2.3" y="13" class="st0" width="27.4" height="5.9"/>
	<text transform="matrix(1 0 0 1 2.2917 18.6413)"><tspan x="0" y="0" class="st1 st2 st3">¯\_(</tspan><tspan x="10" y="0" class="st1 st4 st3">ツ</tspan><tspan x="17" y="0" class="st1 st2 st3">)_/¯</tspan></text>
</g>
</svg>
